<?xml version="1.0" encoding="UTF-8" standalone="no"?>
<!-- Generator: Gravit.io -->
<svg xmlns="http://www.w3.org/2000/svg" xmlns:xlink="http://www.w3.org/1999/xlink" style="isolation:isolate" viewBox="0 0 200 200" width="200pt" height="200pt"><defs><clipPath id="_clipPath_tXahuLPnhJnAsjsAoQSi9h72w3D7UIDC"><rect width="200" height="200"/></clipPath></defs><g clip-path="url(#_clipPath_tXahuLPnhJnAsjsAoQSi9h72w3D7UIDC)"><g><rect x="-18" y="-15" width="236" height="233" transform="matrix(1,0,0,1,0,0)" fill="none"/></g><path d=" M 100 0 C 72.375 0 50 21.059 50 47.059 C 50 73.059 72.375 94.118 100 94.118 C 127.625 94.118 150 73.059 150 47.059 C 150 21.059 127.625 0 100 0 Z  M 100 23.529 C 113.775 23.529 125 34.094 125 47.059 C 125 60.024 113.775 70.588 100 70.588 C 86.225 70.588 75 60.024 75 47.059 C 75 34.094 86.225 23.529 100 23.529 Z  M 100 117.647 C 24.025 117.647 0 164.706 0 164.706 L 0 200 L 200 200 L 200 164.706 C 200 164.706 175.975 117.647 100 117.647 Z  M 100 141.176 C 147.025 141.176 168.313 162.588 175 171.329 L 175 176.471 L 25 176.471 L 25 171.318 C 31.938 162.376 53.225 141.176 100 141.176 Z " fill="rgb(0,0,0)"/></g></svg>