<?xml version="1.0" encoding="UTF-8" standalone="no"?>
<!-- Generator: Gravit.io -->
<svg xmlns="http://www.w3.org/2000/svg" xmlns:xlink="http://www.w3.org/1999/xlink" style="isolation:isolate" viewBox="0 0 200 200" width="200pt" height="200pt"><defs><clipPath id="_clipPath_8PRDnkf4XN2q1tGm4P2sur6YIICTs2u9"><rect width="200" height="200"/></clipPath></defs><g clip-path="url(#_clipPath_8PRDnkf4XN2q1tGm4P2sur6YIICTs2u9)"><g><rect x="-18" y="-15" width="236" height="233" transform="matrix(1,0,0,1,0,0)" fill="none"/></g><path d=" M 100 200 C 44.915 200 0 155.144 0 100 C 0 44.856 44.856 0 100 0 C 155.144 0 200 44.856 200 100 C 200 155.144 155.203 200 100 200 L 100 200 Z  M 100 6.467 C 48.383 6.467 6.467 48.383 6.467 100 C 6.467 151.617 48.383 193.533 100 193.533 C 151.617 193.533 193.533 151.617 193.533 100 C 193.533 48.383 151.617 6.467 100 6.467 L 100 6.467 Z  M 113.345 146.855 C 111.464 146.855 109.583 146.384 107.937 145.444 L 72.722 125.103 L 43.386 125.103 C 38.154 125.103 34.039 120.929 34.039 115.755 L 34.039 84.539 C 34.039 79.306 38.213 75.191 43.386 75.191 L 72.428 75.191 L 107.819 54.733 C 111.18 52.854 115.275 52.854 118.636 54.733 C 122.046 56.731 124.045 60.2 124.045 64.08 L 124.045 136.096 C 124.045 139.976 122.046 143.504 118.636 145.444 C 117.166 146.384 115.226 146.855 113.345 146.855 L 113.345 146.855 Z  M 111.17 139.859 C 111.817 140.212 112.581 140.447 113.345 140.447 C 114.109 140.447 114.874 140.27 115.52 139.859 C 116.874 139.092 117.706 137.652 117.695 136.096 L 117.695 64.021 C 117.695 62.434 116.872 60.964 115.52 60.259 C 114.874 59.906 114.109 59.671 113.345 59.671 C 112.581 59.671 111.817 59.847 111.17 60.259 L 76.602 80.247 L 76.602 119.988 L 111.17 139.859 Z  M 43.445 81.54 C 41.858 81.54 40.506 82.892 40.506 84.48 L 40.506 115.697 C 40.506 117.284 41.858 118.636 43.445 118.636 L 70.253 118.636 L 70.253 81.423 L 43.445 81.423 L 43.445 81.54 L 43.445 81.54 Z " fill="rgb(255,255,255)"/></g></svg>