<?xml version="1.0" encoding="UTF-8" standalone="no"?>
<!-- Generator: Gravit.io -->
<svg xmlns="http://www.w3.org/2000/svg" xmlns:xlink="http://www.w3.org/1999/xlink" style="isolation:isolate" viewBox="0 0 200 200" width="200pt" height="200pt"><defs><clipPath id="_clipPath_9CzmfjjCQQ4R011eem4a0pjkrbVxpPw3"><rect width="200" height="200"/></clipPath></defs><g clip-path="url(#_clipPath_9CzmfjjCQQ4R011eem4a0pjkrbVxpPw3)"><g><path d=" M 73.583 138.955 C 87.335 149.964 104.508 155.96 122.213 155.935 C 164.937 155.935 199.562 121.742 199.562 79.569 C 199.562 37.396 164.937 3.203 122.213 3.203 C 79.497 3.203 44.872 37.396 44.872 79.569 C 44.843 97.049 50.917 114.006 62.07 127.581 L 0.437 188.431 L 11.95 199.797 L 73.583 138.955 L 73.583 138.955 Z  M 53.006 79.569 C 53.006 117.307 83.993 147.9 122.217 147.9 C 160.441 147.9 191.428 117.307 191.428 79.569 C 191.428 41.833 160.443 11.242 122.221 11.242 C 83.999 11.242 53.014 41.833 53.014 79.569 L 53.006 79.569 Z " fill-rule="evenodd" fill="rgb(0,0,0)"/><rect x="-18" y="-15" width="236" height="233" transform="matrix(1,0,0,1,0,0)" fill="none"/></g></g></svg>